<?xml version="1.0" encoding="UTF-8" standalone="no"?>
<svg
   viewBox="0 0 512 512"
   width="100%"
   height="100%"
   version="1.1"
   id="svg3"
   sodipodi:docname="favicon.svg"
   xml:space="preserve"
   inkscape:version="1.4.4 (dcaf3e7d9e, 2026-05-05)"
   xmlns:inkscape="http://www.inkscape.org/namespaces/inkscape"
   xmlns:sodipodi="http://sodipodi.sourceforge.net/DTD/sodipodi-0.dtd"
   xmlns="http://www.w3.org/2000/svg"
   xmlns:svg="http://www.w3.org/2000/svg"><sodipodi:namedview
     id="namedview3"
     pagecolor="#505050"
     bordercolor="#eeeeee"
     borderopacity="1"
     inkscape:showpageshadow="0"
     inkscape:pageopacity="0"
     inkscape:pagecheckerboard="0"
     inkscape:deskcolor="#505050"
     inkscape:zoom="2.390625"
     inkscape:cx="255.79085"
     inkscape:cy="306.19608"
     inkscape:window-width="2560"
     inkscape:window-height="1410"
     inkscape:window-x="0"
     inkscape:window-y="0"
     inkscape:window-maximized="1"
     inkscape:current-layer="svg3" /><defs
     id="defs2"><linearGradient
       id="grad"
       x1="0%"
       y1="0%"
       x2="100%"
       y2="100%"><stop
         offset="0%"
         style="stop-color:#6366f1;stop-opacity:1"
         id="stop1" /><stop
         offset="100%"
         style="stop-color:#10b981;stop-opacity:1"
         id="stop2" /></linearGradient><filter
       id="shadow"
       x="0"
       y="0"
       width="1"
       height="1"><feDropShadow
         dx="0"
         dy="16"
         stdDeviation="16"
         flood-color="#000"
         flood-opacity="0.3" /></filter></defs><!-- Background circle with gradient --><circle
     cx="256"
     cy="256"
     r="240"
     fill="url(#grad)"
     filter="url(#shadow)"
     id="circle2" /><!-- Stylized white letter K / connection curves --><!-- Outer glowing rings --><circle
     cx="256"
     cy="256"
     r="210"
     fill="none"
     stroke="#ffffff"
     stroke-width="6"
     stroke-opacity="0.15"
     id="circle3" /><path
     id="path1"
     style="fill:#ffffff;stroke-width:6.24387"
     d="m 282.48438,115.67946 c -6.35789,0.19877 -12.49105,5.51266 -13.55979,14.54568 -0.37596,3.17705 -4.1965,6.3906 -17.39041,14.62587 -15.56478,9.71514 -17.30434,10.41542 -21.88923,8.81713 -17.58998,-6.13186 -25.63939,15.90347 -9.26048,25.35041 2.36714,1.36529 3.0142,4.94896 3.73249,20.64999 1.91553,17.74542 1.04394,18.62547 -6.05998,33.86667 -5.07463,10.88782 -9.20909,17.03825 -15.4429,22.97436 l -8.51312,8.10673 -0.44862,-31.64792 -0.44861,-31.64684 h -25.56997 -25.57102 v 97.46859 97.46863 h 25.60691 25.60586 v -30.01915 c 0,-30.983 1.06009,-36.0612 7.52511,-36.0612 1.13109,0 16.49703,14.88319 34.14644,33.07395 l 32.08913,33.07396 34.86842,-0.44648 34.86737,-0.44651 -26.5738,-27.25782 C 295.5824,353.18343 273.16226,330.33064 260.37559,317.39129 l -23.2488,-23.5264 9.87585,-10.09118 c 13.18143,-13.46851 19.92304,-17.53498 35.11016,-21.18094 12.73088,-3.05635 12.77073,-3.05579 16.52379,0.37685 8.94569,8.18185 21.84489,2.45116 21.84489,-9.70488 0,-6.65428 0.69572,-7.66454 13.47109,-19.56803 12.8785,-11.9997 13.81757,-12.55169 21.35616,-12.55169 6.55105,0 8.46473,-0.73583 11.30934,-4.3521 5.95093,-7.56542 3.74489,-16.38603 -5.37391,-21.48913 -1.87271,-1.04804 -3.20785,-6.9866 -4.96429,-22.075 l -2.40353,-20.64261 4.77853,-3.83698 c 3.6804,-2.95503 4.77855,-5.20795 4.77855,-9.80511 0,-12.60018 -13.65647,-18.28067 -22.55529,-9.38185 l -4.23386,4.23281 -17.60471,-2.58086 c -9.68246,-1.41991 -18.44979,-2.5819 -19.48253,-2.5819 -1.03278,0 -3.39878,-2.57771 -5.25775,-5.72855 -3.00969,-5.10099 -7.46481,-7.36027 -11.8149,-7.22428 z m -0.40747,6.68488 c 2.24021,0.021 4.64261,1.24274 6.38298,3.86864 1.90944,2.88074 1.86457,3.91854 -0.30821,7.02057 h -10e-4 c -4.37016,6.23936 -12.27408,3.7142 -12.27408,-3.92142 0,-4.46433 2.92622,-6.99844 6.20038,-6.96779 z m 68.69924,8.56485 c 3.60344,0.0918 6.20013,3.31481 5.73276,8.13946 -0.44066,4.54895 -1.20584,5.3273 -5.66733,5.76125 -7.5141,0.73122 -10.57995,-9.33147 -3.92774,-12.8916 1.34866,-0.72177 2.66116,-1.03972 3.86231,-1.00911 z m -52.32536,2.98724 c 0.77235,0.0228 1.67537,0.15919 2.77297,0.38212 2.8687,0.58286 10.79115,1.8146 17.60576,2.73813 22.97106,3.11307 23.08844,3.71435 3.44431,17.61629 -8.0245,5.67879 -14.87061,10.29859 -15.21279,10.26115 -10.72332,-1.11417 -19.57013,-18.6782 -13.82472,-27.44677 1.74929,-2.66962 2.8975,-3.61924 5.21447,-3.55092 z m -25.03688,5.08359 c 0.10643,-0.001 0.18197,0.0193 0.22588,0.0634 0.41307,0.4131 -2.42537,7.1559 -6.30808,14.98477 -4.54656,9.1675 -7.95753,14.1466 -9.58238,13.98728 -15.17626,-1.48904 -19.86888,-2.77223 -19.86888,-5.43301 0,-2.25404 32.24254,-23.54931 35.53346,-23.60237 z m 8.34,5.01499 c 2.06444,-0.0324 3.87308,3.17341 6.14232,9.53385 3.15062,8.83063 3.16785,9.40585 0.40112,13.62838 -1.58883,2.42485 -3.36033,4.27503 -3.93725,4.1114 -0.57696,-0.16378 -4.58035,-0.57593 -8.89629,-0.91623 -9.38041,-0.73971 -9.30777,-0.19497 -2.0309,-15.14732 3.63653,-7.47226 6.12339,-11.17571 8.321,-11.21008 z m 57.8343,6.47904 c 0.4099,0.40984 -2.84442,6.99664 -7.23165,14.63645 -4.38727,7.63981 -8.66774,15.12725 -9.51273,16.63885 -2.37344,4.24588 -10.02837,-0.41091 -11.47083,-6.97835 -0.61497,-2.80072 -0.86127,-5.28025 -0.54782,-5.51003 11.67458,-8.5458 28.20609,-19.34387 28.76303,-18.78692 z m 7.7774,1.91057 c 0.6957,0.0116 1.26522,1.56994 1.32579,3.8032 0.0696,2.55236 1.01749,12.2792 2.10691,21.61477 1.2876,11.03104 1.41778,17.5381 0.3705,18.5853 h -0.001 c -3.27144,3.27146 -16.1622,-1.46693 -23.20972,-8.53108 -1.11311,-1.11569 16.52887,-33.7891 19.10357,-35.38036 0.1034,-0.0639 0.20465,-0.0935 0.30401,-0.0917 z m -122.79368,6.11911 c 4.94294,-0.01 8.93732,7.55087 4.97277,12.32791 -1.08962,1.31287 -3.2862,2.38664 -4.88094,2.38664 -6.66545,0 -8.78616,-10.16952 -2.8912,-13.86482 0.93593,-0.58671 1.88399,-0.84797 2.79937,-0.84973 z m 73.90315,10.02468 c 4.78671,-0.0609 7.74271,3.70781 6.51071,8.61658 -1.20405,4.79715 -3.87633,6.02642 -8.97755,4.13041 -5.75565,-2.13923 -4.60301,-11.97586 1.48624,-12.68366 0.33469,-0.0389 0.66148,-0.0593 0.9806,-0.0634 z m -58.22911,3.32607 c 1.9146,-0.0343 4.32347,0.16225 7.25489,0.50246 5.61218,0.65136 10.2031,1.88165 10.2031,2.73391 0,0.85222 -1.58891,8.02681 -3.53194,15.94428 -1.94303,7.91752 -4.01232,14.94063 -4.59801,15.60648 -0.58548,0.66585 -4.52578,-5.75774 -8.75696,-14.27542 -7.88982,-15.88288 -8.86768,-20.36333 -0.57108,-20.51171 z m 27.89644,3.53403 c 2.05454,-0.0361 4.72314,0.0984 7.51034,0.41378 13.1575,1.48852 13.23795,4.13449 0.4634,15.2455 -16.25464,14.13785 -20.06416,17.19984 -20.06416,16.12477 0,-2.77053 7.22028,-29.99654 8.26612,-31.16971 0.33,-0.37024 1.7698,-0.57812 3.8243,-0.61434 z m -38.5555,8.5659 8.92796,17.09909 8.92795,17.09799 -7.51668,17.59414 c -4.13442,9.67661 -10.63574,22.05422 -14.44645,27.50586 -3.81068,5.4517 -7.84561,11.65292 -8.96701,13.78037 l -2.03936,3.86863 7.16096,-4.15889 c 6.13484,-3.56321 24.11604,-9.3597 29.03433,-9.3597 0.86507,0 -6.86241,8.32185 -17.17189,18.49347 -9.51393,5.7054 -5.17576,10.92525 0.54782,16.20397 l 0.004,-10e-4 0.0698,0.0686 c 1.84531,1.69869 3.82837,3.40379 5.53431,5.13322 3.22703,3.27142 12.87609,13.05347 24.60308,24.94295 l 0.009,0.009 54.42381,54.31189 -44.68519,0.52569 -65.40588,-62.09247 v -0.001 h -10e-4 c -14.61614,-10.11979 -23.00439,-4.14218 -23.58122,45.68151 v 17.61842 h -36.92324 v -17.97414 l 0.26494,-118.51442 0.3135,-43.98217 18.58532,0.46654 18.5853,0.46763 -0.50034,32.21369 c -0.0886,5.70356 -0.20612,10.63031 -0.35995,14.83383 v 28.78626 c 2.41897,-2.35454 5.14804,-5.04513 8.20806,-8.09089 22.82208,-22.71562 22.36772,-27.32241 29.15257,-35.93771 3.32199,-4.21823 11.01643,-21.79614 8.30094,-40.65396 z m 78.8453,1.89159 c 1.6802,0.008 3.56598,0.44517 5.40766,1.39754 l 4.95163,2.5608 -4.52412,8.20383 c -5.41836,9.82463 -7.91147,10.36982 -9.38503,2.05519 -0.60389,-3.40727 -1.46522,-7.45022 -1.91478,-8.98496 -0.93563,-3.19441 1.76821,-5.25019 5.46464,-5.2324 z m -15.6466,1.53053 c 0.17833,-0.006 0.35486,-0.006 0.52885,10e-4 1.26522,0.0568 2.4187,0.50062 3.48017,1.32579 0.14684,0.11429 0.96897,4.08053 1.82718,8.81501 1.44084,7.94851 1.26269,8.88889 -2.33174,12.26563 -2.141,2.01141 -3.89292,5.25782 -3.89292,7.21478 0,2.94859 -2.43323,4.48262 -14.20258,8.95328 -10.21527,3.88028 -17.15839,7.90224 -24.73081,14.32611 -5.79042,4.91215 -10.91175,8.93112 -11.38003,8.93112 -0.86035,0 3.4747,-11.71147 8.90473,-24.05734 1.77669,-4.03947 7.40885,-10.61675 14.14666,-16.52063 6.15689,-5.3949 14.25177,-12.56954 17.98891,-15.94427 3.82616,-3.45507 6.98768,-5.2077 9.66158,-5.31056 z m 31.94344,7.067 c 1.91264,-0.0449 4.53379,1.38491 9.17075,3.9341 11.28478,6.20383 12.11272,8.78982 3.51504,10.98627 -20.48751,5.23406 -24.64591,3.79852 -19.32422,-6.67429 2.89238,-5.69201 4.17932,-8.18837 6.63843,-8.24608 z m 31.98252,6.82105 c 3.88833,-0.009 7.33372,3.9841 6.04943,9.10106 -1.01993,4.06363 -5.06207,5.24251 -10.47857,3.05692 -2.62855,-1.06069 -2.68138,-7.53967 -0.0825,-10.1387 1.40026,-1.40026 2.98992,-2.01619 4.51145,-2.01928 z m -51.07132,11.60064 c 5.59858,0 8.52343,6.40725 4.91154,10.75936 -2.92382,3.52291 -7.65468,3.02812 -10.54825,-1.10307 -3.48158,-4.97067 -0.7462,-9.65629 5.63671,-9.65629 z m 36.47394,2.29692 c 0.6861,0.0226 1.15509,0.11539 1.33316,0.29343 0.48446,0.48449 -5.41442,6.75537 -13.10798,13.93453 -14.97579,13.97431 -14.68264,13.77399 -17.53501,11.94686 -3.66593,-2.34824 -3.03592,-8.04505 1.51578,-13.71076 2.50757,-3.12116 5.23709,-6.51488 6.06631,-7.54198 1.44208,-1.78616 16.92502,-5.08081 21.72774,-4.92208 z m -49.8078,12.03871 c 1.483,-0.07 2.36618,0.42718 3.42213,1.38278 1.49115,1.34947 3.56695,2.4542 4.61387,2.4542 4.17375,0 4.2749,8.57417 0.13835,11.75472 -2.17431,1.67181 -5.06863,2.99592 -6.43154,2.93975 -3.22483,-0.12939 -23.1067,-8.62098 -23.11898,-9.87372 -0.004,-0.52874 4.9627,-2.93453 11.03912,-5.34539 5.53212,-2.1949 8.43038,-3.22231 10.33713,-3.31234 z m -27.36022,14.24271 c 0.46486,0.009 0.92642,0.0657 1.40495,0.16166 5.75079,1.15019 26.00212,9.76112 26.02705,11.06651 0.009,0.54142 -8.34445,2.32282 -18.56633,3.9584 -10.2219,1.63566 -23.23195,4.30017 -28.91083,5.92066 -5.6788,1.62048 -10.32446,2.70113 -10.32446,2.40139 0,-0.29943 6.13212,-5.8783 13.62734,-12.39759 10.09977,-8.78478 13.4884,-11.16583 16.74228,-11.11087 z m 42.48433,5.2335 c 0.9577,0.006 1.97119,0.25636 3.00097,0.80749 7.6906,4.11588 0.53066,18.40242 -7.17891,10.69283 -4.52248,-4.52249 -0.9937,-11.53728 4.17794,-11.50032 z"
     sodipodi:nodetypes="ssscsccccccccccccsscccccsccssscssscccscccscsscccsssscssssssccsscscsssssccsssssccssccccssscssscscsssssssccsssssssccccscccsccccsscccccccccccccccccssccccccsscsscssssssssssssssscssscssssscsssssssssccsscccssssccssc" /></svg>
