<?xml version="1.0" encoding="UTF-8" standalone="no"?>
<!-- Created with Inkscape (http://www.inkscape.org/) -->

<svg
   width="211.66667mm"
   height="211.66667mm"
   viewBox="0 0 211.66667 211.66667"
   version="1.1"
   id="svg1"
   xml:space="preserve"
   inkscape:version="1.4.4 (dcaf3e7d9e, 2026-05-05)"
   sodipodi:docname="kutsocial_logo.svg"
   xmlns:inkscape="http://www.inkscape.org/namespaces/inkscape"
   xmlns:sodipodi="http://sodipodi.sourceforge.net/DTD/sodipodi-0.dtd"
   xmlns="http://www.w3.org/2000/svg"
   xmlns:svg="http://www.w3.org/2000/svg"><sodipodi:namedview
     id="namedview1"
     pagecolor="#505050"
     bordercolor="#eeeeee"
     borderopacity="1"
     inkscape:showpageshadow="0"
     inkscape:pageopacity="0"
     inkscape:pagecheckerboard="0"
     inkscape:deskcolor="#505050"
     inkscape:document-units="mm"
     inkscape:zoom="0.78666331"
     inkscape:cx="539.62095"
     inkscape:cy="504.66317"
     inkscape:window-width="2560"
     inkscape:window-height="1410"
     inkscape:window-x="0"
     inkscape:window-y="0"
     inkscape:window-maximized="1"
     inkscape:current-layer="layer1" /><defs
     id="defs1" /><g
     inkscape:label="Layer 1"
     inkscape:groupmode="layer"
     id="layer1"
     transform="translate(0.83333474,-42.666665)"><path
       id="path1"
       style="fill:#ffffff;stroke-width:4.32358"
       d="m 121.68649,48.10022 c -4.40254,0.137638 -8.64947,3.817257 -9.38952,10.072196 -0.26033,2.19996 -2.90588,4.42519 -12.04204,10.127729 -10.777893,6.727276 -11.98246,7.212187 -15.15727,6.105449 -12.180238,-4.246027 -17.754084,11.012405 -6.412451,17.553971 1.63913,0.9454 2.087192,3.426926 2.584572,14.299155 1.326411,12.28787 0.722876,12.89726 -4.196251,23.45108 -3.513945,7.5393 -6.376867,11.79819 -10.693485,15.90866 l -5.894938,5.61353 -0.310644,-21.9147 -0.310643,-21.91395 H 42.157814 24.451077 v 67.49244 67.49245 h 17.731588 17.730858 v -20.78685 c 0,-21.45427 0.734062,-24.9707 5.210786,-24.9707 0.783219,0 11.423415,10.30591 23.644808,22.90216 l 22.220223,22.90217 24.14475,-0.30917 24.14402,-0.30918 -18.40111,-18.87477 c -10.12074,-10.38131 -25.64564,-26.2058 -34.49981,-35.16569 l -16.098713,-16.29093 6.838569,-6.98767 c 9.127524,-9.32631 13.795774,-12.14215 24.312144,-14.66681 8.81554,-2.11638 8.84313,-2.11599 11.44195,0.26095 6.19447,5.66555 15.12656,1.69732 15.12656,-6.72017 0,-4.60777 0.48176,-5.30733 9.3281,-13.54994 8.91776,-8.30923 9.56802,-8.69146 14.78814,-8.69146 4.5363,0 5.86143,-0.50953 7.83119,-3.01362 4.12074,-5.2387 2.59316,-11.34656 -3.72118,-14.88022 -1.29677,-0.72572 -2.22129,-4.837893 -3.43754,-15.2859 l -1.66433,-14.294043 3.30891,-2.656924 c 2.5485,-2.046226 3.30892,-3.606267 3.30892,-6.78958 0,-8.725033 -9.45647,-12.658509 -15.61848,-6.496499 l -2.93175,2.931022 -12.19044,-1.787117 c -6.70465,-0.983219 -12.77561,-1.787846 -13.49074,-1.787846 -0.71515,0 -2.35349,-1.784941 -3.64074,-3.96675 -2.08407,-3.532197 -5.16903,-5.096643 -8.18127,-5.002473 z m -0.28215,4.628968 c 1.55124,0.01452 3.21479,0.860534 4.41991,2.678848 1.3222,1.994772 1.29113,2.713404 -0.21342,4.861408 h -7.4e-4 c -3.02613,4.320468 -8.49922,2.571911 -8.49922,-2.715394 0,-3.09134 2.02627,-4.846094 4.29347,-4.824862 z m 47.571,5.930752 c 2.49522,0.06353 4.2933,2.295346 3.96967,5.636189 -0.30514,3.14994 -0.83499,3.688905 -3.92436,3.989399 -5.20316,0.506334 -7.32612,-6.461601 -2.71978,-8.926827 0.93389,-0.499794 1.84273,-0.719958 2.67447,-0.698761 z m -36.23286,2.068522 c 0.53482,0.01579 1.16012,0.11023 1.92016,0.264601 1.98643,0.4036 7.47236,1.256523 12.19116,1.896031 15.90638,2.155645 15.98766,2.572005 2.38502,12.198455 -5.55659,3.932294 -10.2972,7.131283 -10.53414,7.105358 -7.4254,-0.771507 -13.5514,-12.933776 -9.57297,-19.005599 1.2113,-1.848584 2.00638,-2.50616 3.61077,-2.458846 z m -17.33687,3.520153 c 0.0737,-0.0011 0.12601,0.0134 0.15642,0.0439 0.28603,0.28605 -1.67946,4.955123 -4.36805,10.376254 -3.14829,6.348058 -5.51022,9.79585 -6.63535,9.685533 -10.508857,-1.031089 -13.758278,-1.919641 -13.758278,-3.7621 0,-1.560823 22.326458,-16.306797 24.605258,-16.343539 z m 5.77507,3.47264 c 1.42952,-0.02241 2.68192,2.197441 4.25326,6.60174 2.18166,6.114804 2.19359,6.51311 0.27776,9.437022 -1.10019,1.679098 -2.32687,2.960255 -2.72636,2.846947 -0.39952,-0.113411 -3.17168,-0.398804 -6.16027,-0.634445 -6.49549,-0.512215 -6.44519,-0.135005 -1.4063,-10.488811 2.51813,-5.174186 4.24016,-7.738657 5.76191,-7.762453 z m 40.04754,4.486434 c 0.28383,0.283794 -1.96963,4.84484 -5.00758,10.135055 -3.03798,5.290209 -6.00201,10.474911 -6.58712,11.521621 -1.6435,2.940073 -6.94418,-0.284541 -7.94301,-4.832181 -0.42584,-1.939366 -0.59639,-3.656323 -0.37934,-3.815435 8.0841,-5.917567 19.53139,-13.394726 19.91705,-13.00906 z m 5.38548,1.322976 c 0.48174,0.008 0.87611,1.087108 0.91805,2.63354 0.0482,1.76739 0.70456,8.50277 1.45894,14.967216 0.8916,7.638477 0.98174,12.144309 0.25655,12.869449 h -7.3e-4 c -2.26532,2.26533 -11.19157,-1.01578 -16.07165,-5.907374 -0.77077,-0.772563 11.44547,-23.397369 13.22833,-24.49924 0.0716,-0.0443 0.14171,-0.06473 0.21051,-0.06353 z m -85.028873,4.237194 c 3.42275,-0.0067 6.188671,5.228628 3.443409,8.536502 -0.754515,0.909108 -2.275539,1.652643 -3.379822,1.652643 -4.615514,0 -6.084002,-7.04192 -2.002015,-9.600744 0.64808,-0.406266 1.304569,-0.587181 1.938428,-0.588401 z m 51.174473,6.941628 c 3.31457,-0.04217 5.36147,2.567486 4.50836,5.966575 -0.83375,3.321802 -2.68417,4.173016 -6.21653,2.860117 -3.98552,-1.481316 -3.18737,-8.292727 1.02915,-8.782839 0.23176,-0.0269 0.45805,-0.04102 0.67902,-0.04394 z m -40.320939,2.303147 c 1.325778,-0.02379 2.993804,0.112352 5.023677,0.34793 3.886172,0.451038 7.065172,1.302947 7.065172,1.893104 0,0.590126 -1.10025,5.558194 -2.4457,11.040662 -1.34546,5.48251 -2.778358,10.34569 -3.183914,10.80676 -0.405416,0.46107 -3.133892,-3.98696 -6.063785,-9.88506 -5.463334,-10.998153 -6.140458,-14.100652 -0.39545,-14.203396 z m 19.316989,2.447146 c 1.42267,-0.02503 3.27055,0.06813 5.20056,0.286525 9.11095,1.030735 9.16666,2.862943 0.32088,10.556795 -11.25558,9.7898 -13.89349,11.91008 -13.89349,11.16565 0,-1.91846 4.9997,-20.771198 5.7239,-21.583566 0.22851,-0.256372 1.2255,-0.400321 2.64815,-0.425404 z m -26.697886,5.931489 6.18219,11.840311 6.182194,11.83956 -5.20495,12.18312 c -2.862891,6.7006 -7.364757,15.27151 -10.003485,19.04652 -2.638722,3.77505 -5.432724,8.0691 -6.209243,9.54226 l -1.412154,2.67885 4.958626,-2.87984 c 4.24809,-2.46735 16.699229,-6.48115 20.104914,-6.48115 0.599024,0 -4.751901,5.76249 -11.89073,12.80586 -6.587951,3.95072 -3.583971,7.56523 0.379339,11.22049 l 0.0032,-9.2e-4 0.0483,0.0475 c 1.277791,1.17626 2.650973,2.35696 3.832251,3.55451 2.234572,2.26531 8.916094,9.03892 17.036484,17.27183 l 0.006,0.006 37.68594,37.60844 -30.9424,0.36401 -45.290511,-42.99612 v -7.3e-4 h -7.3e-4 C 60.40165,186.03435 54.593181,190.17356 54.193758,224.67414 v 12.19993 H 28.626139 v -12.44625 l 0.183464,-82.06569 0.217085,-30.45559 12.869452,0.32306 12.869455,0.32381 -0.346461,22.30647 c -0.06138,3.94945 -0.142727,7.36099 -0.249246,10.27174 v 19.93314 c 1.675023,-1.63041 3.564773,-3.49352 5.683698,-5.60257 15.803213,-15.7295 15.488592,-18.91949 20.186783,-24.88518 2.300322,-2.92093 7.62836,-15.09281 5.74801,-28.15096 z m 54.596686,1.309837 c 1.16346,0.0056 2.46927,0.308262 3.74455,0.967732 l 3.42877,1.773231 -3.13274,5.680771 c -3.75196,6.80309 -5.47832,7.18061 -6.49869,1.42312 -0.41817,-2.35937 -1.0146,-5.15893 -1.3259,-6.22166 -0.64788,-2.21198 1.2244,-3.635515 3.78401,-3.623194 z m -10.83454,1.059821 c 0.12349,-0.0046 0.24572,-0.0046 0.3662,7.42e-4 0.87611,0.03934 1.67484,0.346662 2.40986,0.918052 0.10168,0.07914 0.67096,2.825579 1.26524,6.103979 0.99771,5.50397 0.87435,6.15514 -1.61462,8.49338 -1.48255,1.3928 -2.69567,3.64079 -2.69567,4.99589 0,2.04176 -1.6849,3.10401 -9.83462,6.19973 -7.0736,2.68691 -11.88138,5.47193 -17.12493,9.92016 -4.009603,3.40143 -7.555881,6.18438 -7.880142,6.18438 -0.595755,0 2.406062,-8.10964 6.166109,-16.65858 1.230273,-2.79714 5.130283,-7.3516 9.795903,-11.43976 4.26336,-3.73572 9.86868,-8.70382 12.45648,-11.04066 2.64943,-2.392477 4.83864,-3.60609 6.69019,-3.677313 z m 22.11934,4.893563 c 1.32441,-0.0311 3.13943,0.95899 6.35031,2.72418 7.81418,4.29586 8.38749,6.08654 2.434,7.60748 -14.18664,3.62434 -17.06614,2.6303 -13.38112,-4.62164 2.00284,-3.94145 2.89399,-5.67006 4.59681,-5.71002 z m 22.14639,4.72326 c 2.69249,-0.006 5.07826,2.7588 4.18895,6.30206 -0.70625,2.81387 -3.50525,3.63019 -7.25592,2.11677 -1.82015,-0.73448 -1.85673,-5.22087 -0.0571,-7.02057 0.96961,-0.96962 2.07038,-1.39612 3.12397,-1.39826 z m -35.36449,8.0329 c 3.87675,0 5.90207,4.43672 3.40101,7.45035 -2.02461,2.43945 -5.30051,2.09683 -7.30417,-0.76382 -2.41083,-3.44196 -0.51671,-6.68653 3.90316,-6.68653 z m 25.25649,1.59051 c 0.47509,0.0157 0.79985,0.0799 0.92315,0.20318 0.33547,0.33549 -3.74923,4.67778 -9.07666,9.64901 -10.37003,9.67656 -10.16704,9.53785 -12.14217,8.27264 -2.53849,-1.62604 -2.10224,-5.57082 1.0496,-9.49405 1.73638,-2.16126 3.62644,-4.51125 4.20064,-5.22247 0.99857,-1.23683 11.71978,-3.51822 15.04544,-3.40831 z m -34.48957,8.33624 c 1.02691,-0.0485 1.63847,0.2958 2.36967,0.95751 1.03255,0.93444 2.46994,1.69942 3.19489,1.69942 2.89012,0 2.96017,5.93721 0.0958,8.13959 -1.50561,1.15765 -3.50979,2.07454 -4.45354,2.03564 -2.23305,-0.0896 -16.00031,-5.96962 -16.00881,-6.83709 -0.003,-0.36613 3.43644,-2.03202 7.64407,-3.70143 3.83073,-1.51986 5.83764,-2.2313 7.15798,-2.29364 z m -18.94567,9.86241 c 0.32189,0.006 0.6415,0.0455 0.97286,0.11194 3.98216,0.79646 18.00525,6.75912 18.02252,7.66305 0.006,0.3749 -5.77814,1.60844 -12.85632,2.74099 -7.07819,1.13262 -16.087039,2.97768 -20.019397,4.09978 -3.932309,1.12211 -7.149206,1.87041 -7.149206,1.66285 0,-0.20734 4.24621,-4.07045 9.436297,-8.58474 6.993616,-6.08305 9.340086,-7.73182 11.593246,-7.69376 z m 29.41841,3.62395 c 0.66316,0.004 1.36496,0.17752 2.07803,0.55915 5.32538,2.85006 0.36746,12.74282 -4.97106,7.40429 -3.1316,-3.13161 -0.68809,-7.98903 2.89303,-7.96344 z"
       sodipodi:nodetypes="ssscsccccccccccccsscccccsccssscssscccscccscsscccsssscssssssccsscscsssssccsssssccssccccssscssscscsssssssccsssssssccccscccsccccsscccccccccccccccccssccccccsscsscssssssssssssssscssscssssscsssssssssccsscccssssccssc" /></g></svg>
